<svg width="886" height="887" viewBox="0 0 886 887" fill="none" xmlns="http://www.w3.org/2000/svg">
<path d="M370.964 135.711L372.061 138.007L374.357 139.103L372.061 140.199L370.964 142.495L369.868 140.199L367.572 139.103L369.868 138.007L370.964 135.711Z" fill="#566582"/>
<path d="M674.32 229.724L675.416 232.02L677.712 233.116L675.416 234.212L674.32 236.508L673.224 234.212L670.928 233.116L673.224 232.02L674.32 229.724Z" fill="#566582"/>
<path d="M134.511 495.345L135.607 497.641L137.903 498.737L135.607 499.833L134.511 502.129L133.415 499.833L131.119 498.737L133.415 497.641L134.511 495.345Z" fill="#566582"/>
<circle opacity="0.7" cx="442.721" cy="443.5" r="313.051" transform="rotate(45 442.721 443.5)" stroke="url(#paint0_linear_2508_1290)"/>
<defs>
<linearGradient id="paint0_linear_2508_1290" x1="819.719" y1="-10791.8" x2="303.682" y2="-10791.8" gradientUnits="userSpaceOnUse">
<stop stop-color="#5C6C8C" stop-opacity="0"/>
<stop offset="0.350885" stop-color="#5C6C8C"/>
</linearGradient>
</defs>
</svg>
