<svg width="349" height="352" viewBox="0 0 349 352" fill="none" xmlns="http://www.w3.org/2000/svg">
<circle opacity="0.9" cx="174.486" cy="177.5" r="173.486" stroke="url(#paint0_linear_2508_1289)"/>
<path d="M169.619 0.583984L170.715 2.88L173.011 3.97618L170.715 5.07235L169.619 7.36837L168.523 5.07235L166.227 3.97618L168.523 2.88L169.619 0.583984Z" fill="#566582"/>
<path d="M4.85313 138.024L5.94931 140.32L8.24532 141.417L5.94931 142.513L4.85313 144.809L3.75695 142.513L1.46094 141.417L3.75695 140.32L4.85313 138.024Z" fill="#566582"/>
<path d="M258.783 326.233L259.879 328.529L262.175 329.626L259.879 330.722L258.783 333.018L257.687 330.722L255.391 329.626L257.687 328.529L258.783 326.233Z" fill="#566582"/>
<path d="M208.384 344.647L209.481 346.943L211.777 348.04L209.481 349.136L208.384 351.432L207.288 349.136L204.992 348.04L207.288 346.943L208.384 344.647Z" fill="#566582"/>
<defs>
<linearGradient id="paint0_linear_2508_1289" x1="383.411" y1="-6048.9" x2="97.434" y2="-6048.9" gradientUnits="userSpaceOnUse">
<stop stop-color="#5C6C8C" stop-opacity="0"/>
<stop offset="0.350885" stop-color="#5C6C8C"/>
</linearGradient>
</defs>
</svg>
