<svg width="294" height="210" viewBox="0 0 294 210" fill="none" xmlns="http://www.w3.org/2000/svg">
<rect y="86" width="137.272" height="113" rx="4" fill="url(#paint0_linear_2092_283)" fill-opacity="0.5"/>
<rect x="156" y="36" width="137.272" height="163" rx="4" fill="url(#paint1_linear_2092_283)" fill-opacity="0.5"/>
<path d="M57.2967 58.436C58.7901 58.716 60.0127 59.36 60.9647 60.368C61.9167 61.376 62.3927 62.6547 62.3927 64.204C62.3927 66.108 61.7394 67.6107 60.4327 68.712C59.1261 69.8133 57.5394 70.364 55.6727 70.364C54.1794 70.364 52.8541 70.028 51.6967 69.356C50.5394 68.6653 49.7181 67.676 49.2327 66.388L51.4167 65.1C51.9954 66.9107 53.4141 67.816 55.6727 67.816C56.8861 67.816 57.8754 67.4987 58.6407 66.864C59.4061 66.2293 59.7887 65.3427 59.7887 64.204C59.7887 63.0653 59.4061 62.1787 58.6407 61.544C57.8754 60.8907 56.8861 60.564 55.6727 60.564H55.0007L53.9647 58.968L58.5007 52.836H49.7927V50.4H61.5527V52.696L57.2967 58.436ZM70.8564 58.044C72.7044 58.044 74.2631 58.5947 75.5324 59.696C76.8204 60.7787 77.4644 62.2813 77.4644 64.204C77.4644 66.108 76.8111 67.6107 75.5044 68.712C74.1977 69.8133 72.6111 70.364 70.7444 70.364C69.2511 70.364 67.9164 70.0093 66.7404 69.3C65.5644 68.572 64.7431 67.5267 64.2764 66.164L66.4884 64.904C66.7497 65.856 67.2537 66.584 68.0004 67.088C68.7471 67.5733 69.6617 67.816 70.7444 67.816C71.9764 67.816 72.9751 67.4987 73.7404 66.864C74.5057 66.2293 74.8884 65.3427 74.8884 64.204C74.8884 63.0653 74.5057 62.1787 73.7404 61.544C72.9751 60.8907 71.9951 60.564 70.8004 60.564H65.2564L65.9844 50.4H76.7084V52.836H68.3364L68.0004 58.044H70.8564ZM83.9166 58.716C82.6473 58.716 81.5926 58.296 80.7526 57.456C79.9126 56.616 79.4926 55.5893 79.4926 54.376C79.4926 53.1813 79.9126 52.164 80.7526 51.324C81.6113 50.4653 82.666 50.036 83.9166 50.036C85.186 50.036 86.2406 50.456 87.0806 51.296C87.9206 52.136 88.3406 53.1627 88.3406 54.376C88.3406 55.5893 87.9206 56.616 87.0806 57.456C86.2593 58.296 85.2046 58.716 83.9166 58.716ZM82.2926 56.028C82.722 56.4573 83.2633 56.672 83.9166 56.672C84.57 56.672 85.102 56.448 85.5126 56C85.942 55.552 86.1566 55.0107 86.1566 54.376C86.1566 53.7413 85.942 53.2093 85.5126 52.78C85.102 52.332 84.57 52.108 83.9166 52.108C83.2633 52.108 82.722 52.332 82.2926 52.78C81.882 53.2093 81.6766 53.7413 81.6766 54.376C81.6766 55.0293 81.882 55.58 82.2926 56.028ZM80.8086 67.228L93.8286 52.668L95.2006 53.424L82.1526 68.012L80.8086 67.228ZM95.5366 69.076C94.6966 69.916 93.642 70.336 92.3726 70.336C91.1033 70.336 90.0486 69.916 89.2086 69.076C88.3686 68.236 87.9486 67.2093 87.9486 65.996C87.9486 64.7827 88.3686 63.756 89.2086 62.916C90.0486 62.076 91.1033 61.656 92.3726 61.656C93.642 61.656 94.6966 62.076 95.5366 62.916C96.3766 63.756 96.7966 64.7827 96.7966 65.996C96.7966 67.2093 96.3766 68.236 95.5366 69.076ZM90.7486 67.62C91.178 68.0493 91.7193 68.264 92.3726 68.264C93.026 68.264 93.558 68.0493 93.9686 67.62C94.398 67.172 94.6126 66.6307 94.6126 65.996C94.6126 65.3613 94.398 64.8293 93.9686 64.4C93.558 63.952 93.026 63.728 92.3726 63.728C91.7193 63.728 91.178 63.952 90.7486 64.4C90.338 64.8293 90.1326 65.3613 90.1326 65.996C90.1326 66.6307 90.338 67.172 90.7486 67.62Z" fill="white"/>
<path d="M191.768 7L197.535 13H186L191.768 7Z" fill="#FF2752"/>
<path d="M213.095 8.044C214.943 8.044 216.502 8.59467 217.771 9.696C219.059 10.7787 219.703 12.2813 219.703 14.204C219.703 16.108 219.05 17.6107 217.743 18.712C216.437 19.8133 214.85 20.364 212.983 20.364C211.49 20.364 210.155 20.0093 208.979 19.3C207.803 18.572 206.982 17.5267 206.515 16.164L208.727 14.904C208.989 15.856 209.493 16.584 210.239 17.088C210.986 17.5733 211.901 17.816 212.983 17.816C214.215 17.816 215.214 17.4987 215.979 16.864C216.745 16.2293 217.127 15.3427 217.127 14.204C217.127 13.0653 216.745 12.1787 215.979 11.544C215.214 10.8907 214.234 10.564 213.039 10.564H207.495L208.223 0.399999H218.947V2.836H210.575L210.239 8.044H213.095ZM234.884 17.592C233.559 19.44 231.702 20.364 229.312 20.364C226.923 20.364 225.066 19.44 223.74 17.592C222.415 15.744 221.752 13.28 221.752 10.2C221.752 7.12 222.415 4.656 223.74 2.808C225.066 0.959999 226.923 0.0359983 229.312 0.0359983C231.702 0.0359983 233.559 0.959999 234.884 2.808C236.21 4.656 236.872 7.12 236.872 10.2C236.872 13.28 236.21 15.744 234.884 17.592ZM225.644 15.828C226.503 17.1533 227.726 17.816 229.312 17.816C230.899 17.816 232.122 17.1533 232.98 15.828C233.858 14.5027 234.296 12.6267 234.296 10.2C234.296 7.77333 233.858 5.89733 232.98 4.572C232.122 3.228 230.899 2.556 229.312 2.556C227.726 2.556 226.503 3.21867 225.644 4.544C224.786 5.86933 224.356 7.75467 224.356 10.2C224.356 12.6267 224.786 14.5027 225.644 15.828ZM243.546 8.716C242.277 8.716 241.222 8.296 240.382 7.456C239.542 6.616 239.122 5.58933 239.122 4.376C239.122 3.18133 239.542 2.164 240.382 1.324C241.241 0.465332 242.296 0.0359983 243.546 0.0359983C244.816 0.0359983 245.87 0.455999 246.71 1.296C247.55 2.136 247.97 3.16267 247.97 4.376C247.97 5.58933 247.55 6.616 246.71 7.456C245.889 8.296 244.834 8.716 243.546 8.716ZM241.922 6.028C242.352 6.45733 242.893 6.672 243.546 6.672C244.2 6.672 244.732 6.448 245.142 6C245.572 5.552 245.786 5.01067 245.786 4.376C245.786 3.74133 245.572 3.20933 245.142 2.78C244.732 2.332 244.2 2.108 243.546 2.108C242.893 2.108 242.352 2.332 241.922 2.78C241.512 3.20933 241.306 3.74133 241.306 4.376C241.306 5.02933 241.512 5.58 241.922 6.028ZM240.438 17.228L253.458 2.668L254.83 3.424L241.782 18.012L240.438 17.228ZM255.166 19.076C254.326 19.916 253.272 20.336 252.002 20.336C250.733 20.336 249.678 19.916 248.838 19.076C247.998 18.236 247.578 17.2093 247.578 15.996C247.578 14.7827 247.998 13.756 248.838 12.916C249.678 12.076 250.733 11.656 252.002 11.656C253.272 11.656 254.326 12.076 255.166 12.916C256.006 13.756 256.426 14.7827 256.426 15.996C256.426 17.2093 256.006 18.236 255.166 19.076ZM250.378 17.62C250.808 18.0493 251.349 18.264 252.002 18.264C252.656 18.264 253.188 18.0493 253.598 17.62C254.028 17.172 254.242 16.6307 254.242 15.996C254.242 15.3613 254.028 14.8293 253.598 14.4C253.188 13.952 252.656 13.728 252.002 13.728C251.349 13.728 250.808 13.952 250.378 14.4C249.968 14.8293 249.762 15.3613 249.762 15.996C249.762 16.6307 249.968 17.172 250.378 17.62Z" fill="white"/>
<path d="M53.56 204V203.118L57.088 199.562C58.096 198.554 58.6 197.691 58.6 196.972C58.6 196.347 58.404 195.861 58.012 195.516C57.6293 195.161 57.1673 194.984 56.626 194.984C55.618 194.984 54.8853 195.446 54.428 196.37L53.602 195.88C53.91 195.273 54.33 194.816 54.862 194.508C55.394 194.191 55.982 194.032 56.626 194.032C57.41 194.032 58.096 194.298 58.684 194.83C59.2813 195.353 59.58 196.067 59.58 196.972C59.58 197.541 59.4213 198.087 59.104 198.61C58.7867 199.133 58.3387 199.683 57.76 200.262L54.96 203.048H59.79V204H53.56ZM67.3588 202.796C66.7148 203.711 65.8048 204.168 64.6288 204.168C63.4528 204.168 62.5381 203.711 61.8848 202.796C61.2408 201.872 60.9188 200.64 60.9188 199.1C60.9188 197.56 61.2408 196.333 61.8848 195.418C62.5381 194.494 63.4528 194.032 64.6288 194.032C65.8048 194.032 66.7148 194.494 67.3588 195.418C68.0121 196.333 68.3388 197.56 68.3388 199.1C68.3388 200.64 68.0121 201.872 67.3588 202.796ZM62.6128 202.138C63.0981 202.857 63.7701 203.216 64.6288 203.216C65.4874 203.216 66.1548 202.857 66.6308 202.138C67.1161 201.419 67.3588 200.407 67.3588 199.1C67.3588 197.793 67.1161 196.781 66.6308 196.062C66.1548 195.343 65.4874 194.984 64.6288 194.984C63.7701 194.984 63.0981 195.343 62.6128 196.062C62.1368 196.781 61.8988 197.793 61.8988 199.1C61.8988 200.407 62.1368 201.419 62.6128 202.138ZM69.4604 204V203.118L72.9884 199.562C73.9964 198.554 74.5004 197.691 74.5004 196.972C74.5004 196.347 74.3044 195.861 73.9124 195.516C73.5297 195.161 73.0677 194.984 72.5264 194.984C71.5184 194.984 70.7857 195.446 70.3284 196.37L69.5024 195.88C69.8104 195.273 70.2304 194.816 70.7624 194.508C71.2944 194.191 71.8824 194.032 72.5264 194.032C73.3104 194.032 73.9964 194.298 74.5844 194.83C75.1817 195.353 75.4804 196.067 75.4804 196.972C75.4804 197.541 75.3217 198.087 75.0044 198.61C74.6871 199.133 74.2391 199.683 73.6604 200.262L70.8604 203.048H75.6904V204H69.4604ZM76.8159 204V203.118L80.3439 199.562C81.3519 198.554 81.8559 197.691 81.8559 196.972C81.8559 196.347 81.6599 195.861 81.2679 195.516C80.8852 195.161 80.4232 194.984 79.8819 194.984C78.8739 194.984 78.1412 195.446 77.6839 196.37L76.8579 195.88C77.1659 195.273 77.5859 194.816 78.1179 194.508C78.6499 194.191 79.2379 194.032 79.8819 194.032C80.6659 194.032 81.3519 194.298 81.9399 194.83C82.5372 195.353 82.8359 196.067 82.8359 196.972C82.8359 197.541 82.6772 198.087 82.3599 198.61C82.0425 199.133 81.5945 199.683 81.0159 200.262L78.2159 203.048H83.0459V204H76.8159Z" fill="#818AA7"/>
<path d="M209.56 204V203.118L213.088 199.562C214.096 198.554 214.6 197.691 214.6 196.972C214.6 196.347 214.404 195.861 214.012 195.516C213.629 195.161 213.167 194.984 212.626 194.984C211.618 194.984 210.885 195.446 210.428 196.37L209.602 195.88C209.91 195.273 210.33 194.816 210.862 194.508C211.394 194.191 211.982 194.032 212.626 194.032C213.41 194.032 214.096 194.298 214.684 194.83C215.281 195.353 215.58 196.067 215.58 196.972C215.58 197.541 215.421 198.087 215.104 198.61C214.787 199.133 214.339 199.683 213.76 200.262L210.96 203.048H215.79V204H209.56ZM223.359 202.796C222.715 203.711 221.805 204.168 220.629 204.168C219.453 204.168 218.538 203.711 217.885 202.796C217.241 201.872 216.919 200.64 216.919 199.1C216.919 197.56 217.241 196.333 217.885 195.418C218.538 194.494 219.453 194.032 220.629 194.032C221.805 194.032 222.715 194.494 223.359 195.418C224.012 196.333 224.339 197.56 224.339 199.1C224.339 200.64 224.012 201.872 223.359 202.796ZM218.613 202.138C219.098 202.857 219.77 203.216 220.629 203.216C221.487 203.216 222.155 202.857 222.631 202.138C223.116 201.419 223.359 200.407 223.359 199.1C223.359 197.793 223.116 196.781 222.631 196.062C222.155 195.343 221.487 194.984 220.629 194.984C219.77 194.984 219.098 195.343 218.613 196.062C218.137 196.781 217.899 197.793 217.899 199.1C217.899 200.407 218.137 201.419 218.613 202.138ZM225.46 204V203.118L228.988 199.562C229.996 198.554 230.5 197.691 230.5 196.972C230.5 196.347 230.304 195.861 229.912 195.516C229.53 195.161 229.068 194.984 228.526 194.984C227.518 194.984 226.786 195.446 226.328 196.37L225.502 195.88C225.81 195.273 226.23 194.816 226.762 194.508C227.294 194.191 227.882 194.032 228.526 194.032C229.31 194.032 229.996 194.298 230.584 194.83C231.182 195.353 231.48 196.067 231.48 196.972C231.48 197.541 231.322 198.087 231.004 198.61C230.687 199.133 230.239 199.683 229.66 200.262L226.86 203.048H231.69V204H225.46ZM235.898 198.148C236.812 198.148 237.587 198.419 238.222 198.96C238.866 199.492 239.188 200.225 239.188 201.158C239.188 202.091 238.866 202.829 238.222 203.37C237.587 203.902 236.812 204.168 235.898 204.168C235.16 204.168 234.502 203.991 233.924 203.636C233.345 203.272 232.953 202.754 232.748 202.082L233.574 201.606C233.714 202.129 233.989 202.53 234.4 202.81C234.82 203.081 235.319 203.216 235.898 203.216C236.57 203.216 237.12 203.039 237.55 202.684C237.988 202.32 238.208 201.811 238.208 201.158C238.208 200.505 237.988 200.001 237.55 199.646C237.12 199.282 236.57 199.1 235.898 199.1H233.238L233.588 194.2H238.838V195.124H234.456L234.245 198.148H235.898Z" fill="#818AA7"/>
<defs>
<linearGradient id="paint0_linear_2092_283" x1="137.272" y1="86" x2="137.272" y2="199" gradientUnits="userSpaceOnUse">
<stop stop-color="#0160FF"/>
<stop offset="1" stop-opacity="0"/>
</linearGradient>
<linearGradient id="paint1_linear_2092_283" x1="293.272" y1="36" x2="293.272" y2="199" gradientUnits="userSpaceOnUse">
<stop stop-color="#FF2752"/>
<stop offset="1"/>
</linearGradient>
</defs>
</svg>
