<svg width="434" height="411" viewBox="0 0 434 411" fill="none" xmlns="http://www.w3.org/2000/svg">
<rect y="130" width="203" height="275" rx="4" fill="url(#paint0_linear_2296_355)" fill-opacity="0.5"/>
<rect x="231" y="54" width="203" height="351" rx="4" fill="url(#paint1_linear_2296_355)" fill-opacity="0.5"/>
<path d="M315.592 12.2763C318.331 12.2763 320.642 13.0926 322.523 14.7252C324.433 16.3302 325.387 18.5578 325.387 21.4079C325.387 24.2305 324.419 26.458 322.482 28.0907C320.545 29.7233 318.193 30.5396 315.426 30.5396C313.212 30.5396 311.233 30.0138 309.49 28.9623C307.747 27.8831 306.529 26.3335 305.837 24.3135L309.117 22.4456C309.504 23.8569 310.251 24.9361 311.358 25.6832C312.465 26.4027 313.821 26.7624 315.426 26.7624C317.252 26.7624 318.732 26.292 319.867 25.3512C321.001 24.4103 321.569 23.0959 321.569 21.4079C321.569 19.72 321.001 18.4056 319.867 17.4647C318.732 16.4962 317.28 16.012 315.509 16.012H307.29L308.369 0.944722H324.267V4.55588H311.856L311.358 12.2763H315.592ZM347.892 26.4304C345.927 29.1698 343.174 30.5396 339.632 30.5396C336.09 30.5396 333.337 29.1698 331.372 26.4304C329.407 23.6909 328.425 20.0382 328.425 15.4724C328.425 10.9065 329.407 7.25387 331.372 4.51437C333.337 1.77487 336.09 0.405123 339.632 0.405123C343.174 0.405123 345.927 1.77487 347.892 4.51437C349.857 7.25387 350.839 10.9065 350.839 15.4724C350.839 20.0382 349.857 23.6909 347.892 26.4304ZM334.195 23.8154C335.467 25.7801 337.28 26.7624 339.632 26.7624C341.984 26.7624 343.797 25.7801 345.069 23.8154C346.37 21.8507 347.02 19.0697 347.02 15.4724C347.02 11.875 346.37 9.09404 345.069 7.12935C343.797 5.13698 341.984 4.1408 339.632 4.1408C337.28 4.1408 335.467 5.12315 334.195 7.08784C332.922 9.05253 332.285 11.8474 332.285 15.4724C332.285 19.0697 332.922 21.8507 334.195 23.8154ZM360.732 13.2725C358.851 13.2725 357.287 12.6498 356.042 11.4046C354.797 10.1594 354.174 8.63745 354.174 6.83879C354.174 5.0678 354.797 3.5597 356.042 2.31447C357.315 1.04157 358.878 0.405123 360.732 0.405123C362.614 0.405123 364.178 1.02774 365.423 2.27296C366.668 3.51819 367.291 5.04013 367.291 6.83879C367.291 8.63745 366.668 10.1594 365.423 11.4046C364.205 12.6498 362.642 13.2725 360.732 13.2725ZM358.325 9.28774C358.961 9.92419 359.764 10.2424 360.732 10.2424C361.701 10.2424 362.49 9.91035 363.098 9.24623C363.735 8.58211 364.053 7.77963 364.053 6.83879C364.053 5.89796 363.735 5.10931 363.098 4.47286C362.49 3.80874 361.701 3.47668 360.732 3.47668C359.764 3.47668 358.961 3.80874 358.325 4.47286C357.716 5.10931 357.412 5.89796 357.412 6.83879C357.412 7.8073 357.716 8.62362 358.325 9.28774ZM356.125 25.8908L375.426 4.30683L377.46 5.42754L358.117 27.053L356.125 25.8908ZM377.958 28.6303C376.713 29.8755 375.149 30.4981 373.268 30.4981C371.386 30.4981 369.823 29.8755 368.577 28.6303C367.332 27.385 366.71 25.8631 366.71 24.0644C366.71 22.2658 367.332 20.7438 368.577 19.4986C369.823 18.2534 371.386 17.6308 373.268 17.6308C375.149 17.6308 376.713 18.2534 377.958 19.4986C379.203 20.7438 379.826 22.2658 379.826 24.0644C379.826 25.8631 379.203 27.385 377.958 28.6303ZM370.86 26.4719C371.497 27.1083 372.299 27.4265 373.268 27.4265C374.236 27.4265 375.025 27.1083 375.634 26.4719C376.27 25.8077 376.588 25.0053 376.588 24.0644C376.588 23.1236 376.27 22.3349 375.634 21.6985C375.025 21.0344 374.236 20.7023 373.268 20.7023C372.299 20.7023 371.497 21.0344 370.86 21.6985C370.251 22.3349 369.947 23.1236 369.947 24.0644C369.947 25.0053 370.251 25.8077 370.86 26.4719Z" fill="white"/>
<path d="M77.1164 86.978C79.3301 87.3931 81.1426 88.3477 82.5539 89.842C83.9651 91.3363 84.6708 93.2318 84.6708 95.5285C84.6708 98.3511 83.7022 100.579 81.7652 102.211C79.8282 103.844 77.4761 104.66 74.7089 104.66C72.4952 104.66 70.5305 104.162 68.8149 103.166C67.0992 102.142 65.8817 100.675 65.1622 98.7661L68.3998 96.8568C69.2576 99.5409 71.3607 100.883 74.7089 100.883C76.5076 100.883 77.9742 100.413 79.1087 99.4718C80.2433 98.5309 80.8106 97.2165 80.8106 95.5285C80.8106 93.8406 80.2433 92.5262 79.1087 91.5853C77.9742 90.6168 76.5076 90.1326 74.7089 90.1326H73.7128L72.177 87.7666L78.9012 78.6765H65.9924V75.0653H83.4255V78.4689L77.1164 86.978ZM97.2174 86.3969C99.9569 86.3969 102.267 87.2132 104.149 88.8458C106.058 90.4508 107.013 92.6784 107.013 95.5285C107.013 98.3511 106.045 100.579 104.108 102.211C102.171 103.844 99.8185 104.66 97.0514 104.66C94.8376 104.66 92.8591 104.134 91.1158 103.083C89.3725 102.004 88.1549 100.454 87.4631 98.4341L90.7422 96.5662C91.1296 97.9775 91.8767 99.0567 92.9836 99.8038C94.0905 100.523 95.4464 100.883 97.0514 100.883C98.8777 100.883 100.358 100.413 101.493 99.4718C102.627 98.5309 103.194 97.2165 103.194 95.5285C103.194 93.8406 102.627 92.5262 101.493 91.5853C100.358 90.6168 98.9054 90.1326 97.1344 90.1326H88.9159L89.9951 75.0653H105.892V78.6765H93.4817L92.9836 86.3969H97.2174ZM116.578 87.3931C114.696 87.3931 113.133 86.7705 111.888 85.5252C110.642 84.28 110.02 82.7581 110.02 80.9594C110.02 79.1884 110.642 77.6803 111.888 76.4351C113.161 75.1622 114.724 74.5257 116.578 74.5257C118.46 74.5257 120.023 75.1483 121.268 76.3936C122.514 77.6388 123.136 79.1607 123.136 80.9594C123.136 82.7581 122.514 84.28 121.268 85.5252C120.051 86.7705 118.487 87.3931 116.578 87.3931ZM114.171 83.4083C114.807 84.0448 115.61 84.363 116.578 84.363C117.547 84.363 118.335 84.031 118.944 83.3668C119.58 82.7027 119.899 81.9002 119.899 80.9594C119.899 80.0186 119.58 79.2299 118.944 78.5935C118.335 77.9293 117.547 77.5973 116.578 77.5973C115.61 77.5973 114.807 77.9293 114.171 78.5935C113.562 79.2299 113.257 80.0186 113.257 80.9594C113.257 81.9279 113.562 82.7442 114.171 83.4083ZM111.971 100.011L131.272 78.4274L133.306 79.5481L113.963 101.174L111.971 100.011ZM133.804 102.751C132.558 103.996 130.995 104.619 129.113 104.619C127.232 104.619 125.668 103.996 124.423 102.751C123.178 101.506 122.555 99.9837 122.555 98.185C122.555 96.3864 123.178 94.8644 124.423 93.6192C125.668 92.374 127.232 91.7514 129.113 91.7514C130.995 91.7514 132.558 92.374 133.804 93.6192C135.049 94.8644 135.672 96.3864 135.672 98.185C135.672 99.9837 135.049 101.506 133.804 102.751ZM126.706 100.592C127.342 101.229 128.145 101.547 129.113 101.547C130.082 101.547 130.87 101.229 131.479 100.592C132.116 99.9283 132.434 99.1259 132.434 98.185C132.434 97.2442 132.116 96.4555 131.479 95.8191C130.87 95.155 130.082 94.8229 129.113 94.8229C128.145 94.8229 127.342 95.155 126.706 95.8191C126.097 96.4555 125.793 97.2442 125.793 98.185C125.793 99.1259 126.097 99.9283 126.706 100.592Z" fill="white"/>
<path d="M282.154 11.3769L290.705 20.2714H273.604L282.154 11.3769Z" fill="#FF2752"/>
<path d="M86.56 405V404.118L90.088 400.562C91.096 399.554 91.6 398.691 91.6 397.972C91.6 397.347 91.404 396.861 91.012 396.516C90.6293 396.161 90.1673 395.984 89.626 395.984C88.618 395.984 87.8853 396.446 87.428 397.37L86.602 396.88C86.91 396.273 87.33 395.816 87.862 395.508C88.394 395.191 88.982 395.032 89.626 395.032C90.41 395.032 91.096 395.298 91.684 395.83C92.2813 396.353 92.58 397.067 92.58 397.972C92.58 398.541 92.4213 399.087 92.104 399.61C91.7867 400.133 91.3387 400.683 90.76 401.262L87.96 404.048H92.79V405H86.56ZM100.359 403.796C99.7148 404.711 98.8048 405.168 97.6288 405.168C96.4528 405.168 95.5381 404.711 94.8848 403.796C94.2408 402.872 93.9188 401.64 93.9188 400.1C93.9188 398.56 94.2408 397.333 94.8848 396.418C95.5381 395.494 96.4528 395.032 97.6288 395.032C98.8048 395.032 99.7148 395.494 100.359 396.418C101.012 397.333 101.339 398.56 101.339 400.1C101.339 401.64 101.012 402.872 100.359 403.796ZM95.6128 403.138C96.0981 403.857 96.7701 404.216 97.6288 404.216C98.4874 404.216 99.1548 403.857 99.6308 403.138C100.116 402.419 100.359 401.407 100.359 400.1C100.359 398.793 100.116 397.781 99.6308 397.062C99.1548 396.343 98.4874 395.984 97.6288 395.984C96.7701 395.984 96.0981 396.343 95.6128 397.062C95.1368 397.781 94.8988 398.793 94.8988 400.1C94.8988 401.407 95.1368 402.419 95.6128 403.138ZM102.46 405V404.118L105.988 400.562C106.996 399.554 107.5 398.691 107.5 397.972C107.5 397.347 107.304 396.861 106.912 396.516C106.53 396.161 106.068 395.984 105.526 395.984C104.518 395.984 103.786 396.446 103.328 397.37L102.502 396.88C102.81 396.273 103.23 395.816 103.762 395.508C104.294 395.191 104.882 395.032 105.526 395.032C106.31 395.032 106.996 395.298 107.584 395.83C108.182 396.353 108.48 397.067 108.48 397.972C108.48 398.541 108.322 399.087 108.004 399.61C107.687 400.133 107.239 400.683 106.66 401.262L103.86 404.048H108.69V405H102.46ZM109.816 405V404.118L113.344 400.562C114.352 399.554 114.856 398.691 114.856 397.972C114.856 397.347 114.66 396.861 114.268 396.516C113.885 396.161 113.423 395.984 112.882 395.984C111.874 395.984 111.141 396.446 110.684 397.37L109.858 396.88C110.166 396.273 110.586 395.816 111.118 395.508C111.65 395.191 112.238 395.032 112.882 395.032C113.666 395.032 114.352 395.298 114.94 395.83C115.537 396.353 115.836 397.067 115.836 397.972C115.836 398.541 115.677 399.087 115.36 399.61C115.043 400.133 114.595 400.683 114.016 401.262L111.216 404.048H116.046V405H109.816Z" fill="#818AA7"/>
<path d="M317.56 405V404.118L321.088 400.562C322.096 399.554 322.6 398.691 322.6 397.972C322.6 397.347 322.404 396.861 322.012 396.516C321.629 396.161 321.167 395.984 320.626 395.984C319.618 395.984 318.885 396.446 318.428 397.37L317.602 396.88C317.91 396.273 318.33 395.816 318.862 395.508C319.394 395.191 319.982 395.032 320.626 395.032C321.41 395.032 322.096 395.298 322.684 395.83C323.281 396.353 323.58 397.067 323.58 397.972C323.58 398.541 323.421 399.087 323.104 399.61C322.787 400.133 322.339 400.683 321.76 401.262L318.96 404.048H323.79V405H317.56ZM331.359 403.796C330.715 404.711 329.805 405.168 328.629 405.168C327.453 405.168 326.538 404.711 325.885 403.796C325.241 402.872 324.919 401.64 324.919 400.1C324.919 398.56 325.241 397.333 325.885 396.418C326.538 395.494 327.453 395.032 328.629 395.032C329.805 395.032 330.715 395.494 331.359 396.418C332.012 397.333 332.339 398.56 332.339 400.1C332.339 401.64 332.012 402.872 331.359 403.796ZM326.613 403.138C327.098 403.857 327.77 404.216 328.629 404.216C329.487 404.216 330.155 403.857 330.631 403.138C331.116 402.419 331.359 401.407 331.359 400.1C331.359 398.793 331.116 397.781 330.631 397.062C330.155 396.343 329.487 395.984 328.629 395.984C327.77 395.984 327.098 396.343 326.613 397.062C326.137 397.781 325.899 398.793 325.899 400.1C325.899 401.407 326.137 402.419 326.613 403.138ZM333.46 405V404.118L336.988 400.562C337.996 399.554 338.5 398.691 338.5 397.972C338.5 397.347 338.304 396.861 337.912 396.516C337.53 396.161 337.068 395.984 336.526 395.984C335.518 395.984 334.786 396.446 334.328 397.37L333.502 396.88C333.81 396.273 334.23 395.816 334.762 395.508C335.294 395.191 335.882 395.032 336.526 395.032C337.31 395.032 337.996 395.298 338.584 395.83C339.182 396.353 339.48 397.067 339.48 397.972C339.48 398.541 339.322 399.087 339.004 399.61C338.687 400.133 338.239 400.683 337.66 401.262L334.86 404.048H339.69V405H333.46ZM343.898 399.148C344.812 399.148 345.587 399.419 346.222 399.96C346.866 400.492 347.188 401.225 347.188 402.158C347.188 403.091 346.866 403.829 346.222 404.37C345.587 404.902 344.812 405.168 343.898 405.168C343.16 405.168 342.502 404.991 341.924 404.636C341.345 404.272 340.953 403.754 340.748 403.082L341.574 402.606C341.714 403.129 341.989 403.53 342.4 403.81C342.82 404.081 343.319 404.216 343.898 404.216C344.57 404.216 345.12 404.039 345.55 403.684C345.988 403.32 346.208 402.811 346.208 402.158C346.208 401.505 345.988 401.001 345.55 400.646C345.12 400.282 344.57 400.1 343.898 400.1H341.238L341.588 395.2H346.838V396.124H342.456L342.245 399.148H343.898Z" fill="#818AA7"/>
<defs>
<linearGradient id="paint0_linear_2296_355" x1="203" y1="130" x2="203" y2="405" gradientUnits="userSpaceOnUse">
<stop stop-color="#0160FF"/>
<stop offset="1" stop-color="#6F84BB" stop-opacity="0"/>
</linearGradient>
<linearGradient id="paint1_linear_2296_355" x1="434" y1="54" x2="434" y2="405" gradientUnits="userSpaceOnUse">
<stop stop-color="#FF2752"/>
<stop offset="1"/>
</linearGradient>
</defs>
</svg>
