<svg width="1180" height="692" viewBox="0 0 1180 692" fill="none" xmlns="http://www.w3.org/2000/svg">
<g clip-path="url(#clip0_2409_12913)">
<rect width="1180" height="692" fill="black"/>
<circle opacity="0.9" cx="334.498" cy="380.501" r="157.252" stroke="url(#paint0_linear_2409_12913)"/>
<path d="M330.075 220.139L331.068 222.22L333.15 223.214L331.068 224.208L330.075 226.289L329.081 224.208L327 223.214L329.081 222.22L330.075 220.139Z" fill="#566582"/>
<path d="M180.735 350.158L181.729 352.239L183.81 353.232L181.729 354.226L180.735 356.307L179.741 354.226L177.66 353.232L179.741 352.239L180.735 350.158Z" fill="#566582"/>
<path d="M410.899 515.316L411.893 517.397L413.974 518.391L411.893 519.384L410.899 521.465L409.905 519.384L407.824 518.391L409.905 517.397L410.899 515.316Z" fill="#566582"/>
<path d="M365.219 532.008L366.213 534.089L368.294 535.083L366.213 536.077L365.219 538.158L364.226 536.077L362.145 535.083L364.226 534.089L365.219 532.008Z" fill="#566582"/>
<path d="M269.454 102.42L270.447 104.501L272.529 105.495L270.447 106.488L269.454 108.569L268.46 106.488L266.379 105.495L268.46 104.501L269.454 102.42Z" fill="#566582"/>
<path d="M544.43 187.634L545.424 189.715L547.505 190.709L545.424 191.703L544.43 193.784L543.437 191.703L541.355 190.709L543.437 189.715L544.43 187.634Z" fill="#566582"/>
<path d="M54.2193 426.588L55.2129 428.669L57.2941 429.663L55.2129 430.656L54.2193 432.737L53.2257 430.656L51.1445 429.663L53.2257 428.669L54.2193 426.588Z" fill="#566582"/>
<circle opacity="0.7" cx="334.5" cy="380.5" r="283.757" transform="rotate(45 334.5 380.5)" stroke="url(#paint1_linear_2409_12913)"/>
<circle opacity="0.5" cx="334.5" cy="380.5" r="404.112" transform="rotate(-45 334.5 380.5)" stroke="url(#paint2_linear_2409_12913)"/>
<g filter="url(#filter0_f_2409_12913)">
<ellipse cx="1089" cy="422.5" rx="471" ry="461.5" transform="rotate(180 1089 422.5)" fill="black"/>
</g>
<g opacity="0.3" filter="url(#filter1_f_2409_12913)">
<ellipse cx="337.5" cy="224" rx="337.5" ry="224" transform="matrix(-1 0 0 1 557 140)" fill="#6F84BB"/>
</g>
<g opacity="0.5" filter="url(#filter2_f_2409_12913)">
<ellipse cx="549.5" cy="364" rx="549.5" ry="364" transform="matrix(-1 0 0 1 711 869)" fill="#6F84BB"/>
</g>
</g>
<defs>
<filter id="filter0_f_2409_12913" x="398" y="-259" width="1382" height="1363" filterUnits="userSpaceOnUse" color-interpolation-filters="sRGB">
<feFlood flood-opacity="0" result="BackgroundImageFix"/>
<feBlend mode="normal" in="SourceGraphic" in2="BackgroundImageFix" result="shape"/>
<feGaussianBlur stdDeviation="110" result="effect1_foregroundBlur_2409_12913"/>
</filter>
<filter id="filter1_f_2409_12913" x="-511.617" y="-253.617" width="1462.23" height="1235.23" filterUnits="userSpaceOnUse" color-interpolation-filters="sRGB">
<feFlood flood-opacity="0" result="BackgroundImageFix"/>
<feBlend mode="normal" in="SourceGraphic" in2="BackgroundImageFix" result="shape"/>
<feGaussianBlur stdDeviation="196.809" result="effect1_foregroundBlur_2409_12913"/>
</filter>
<filter id="filter2_f_2409_12913" x="-901.62" y="355.38" width="2126.24" height="1755.24" filterUnits="userSpaceOnUse" color-interpolation-filters="sRGB">
<feFlood flood-opacity="0" result="BackgroundImageFix"/>
<feBlend mode="normal" in="SourceGraphic" in2="BackgroundImageFix" result="shape"/>
<feGaussianBlur stdDeviation="256.81" result="effect1_foregroundBlur_2409_12913"/>
</filter>
<linearGradient id="paint0_linear_2409_12913" x1="523.872" y1="-5263.25" x2="264.656" y2="-5263.25" gradientUnits="userSpaceOnUse">
<stop stop-color="#5C6C8C" stop-opacity="0"/>
<stop offset="0.350885" stop-color="#5C6C8C"/>
</linearGradient>
<linearGradient id="paint1_linear_2409_12913" x1="676.22" y1="-9803.48" x2="208.472" y2="-9803.48" gradientUnits="userSpaceOnUse">
<stop stop-color="#5C6C8C" stop-opacity="0"/>
<stop offset="0.350885" stop-color="#5C6C8C"/>
</linearGradient>
<linearGradient id="paint2_linear_2409_12913" x1="821.16" y1="-14123" x2="155.018" y2="-14123" gradientUnits="userSpaceOnUse">
<stop stop-color="#5C6C8C" stop-opacity="0"/>
<stop offset="0.350885" stop-color="#5C6C8C"/>
</linearGradient>
<clipPath id="clip0_2409_12913">
<rect width="1180" height="692" fill="white"/>
</clipPath>
</defs>
</svg>
