<svg width="1302" height="1302" viewBox="0 0 1302 1302" fill="none" xmlns="http://www.w3.org/2000/svg">
<circle opacity="0.7" cx="650.539" cy="650.538" r="323" transform="rotate(45 650.539 650.538)" stroke="url(#paint0_linear_1674_11855)"/>
<circle opacity="0.5" cx="650.538" cy="650.538" r="460" transform="rotate(-45 650.538 650.538)" stroke="url(#paint1_linear_1674_11855)"/>
<circle opacity="0.9" cx="650.539" cy="650.538" r="179" stroke="url(#paint2_linear_1674_11855)"/>
<path d="M645.5 467.999L646.631 470.368L649 471.499L646.631 472.63L645.5 474.999L644.369 472.63L642 471.499L644.369 470.368L645.5 467.999Z" fill="#566582"/>
<path d="M475.5 615.999L476.631 618.368L479 619.499L476.631 620.63L475.5 622.999L474.369 620.63L472 619.499L474.369 618.368L475.5 615.999Z" fill="#566582"/>
<path d="M737.5 803.999L738.631 806.368L741 807.499L738.631 808.63L737.5 810.999L736.369 808.63L734 807.499L736.369 806.368L737.5 803.999Z" fill="#566582"/>
<path d="M685.5 822.999L686.631 825.368L689 826.499L686.631 827.63L685.5 829.999L684.369 827.63L682 826.499L684.369 825.368L685.5 822.999Z" fill="#566582"/>
<path d="M576.5 333.999L577.631 336.368L580 337.499L577.631 338.63L576.5 340.999L575.369 338.63L573 337.499L575.369 336.368L576.5 333.999Z" fill="#566582"/>
<path d="M890.5 431L891.631 433.369L894 434.5L891.631 435.631L890.5 438L889.369 435.631L887 434.5L889.369 433.369L890.5 431Z" fill="#566582"/>
<path d="M331.5 702.999L332.631 705.368L335 706.499L332.631 707.63L331.5 709.999L330.369 707.63L328 706.499L330.369 705.368L331.5 702.999Z" fill="#566582"/>
<defs>
<linearGradient id="paint0_linear_1674_11855" x1="1039.52" y1="-10941.9" x2="507.082" y2="-10941.9" gradientUnits="userSpaceOnUse">
<stop stop-color="#5C6C8C" stop-opacity="0"/>
<stop offset="0.350885" stop-color="#5C6C8C"/>
</linearGradient>
<linearGradient id="paint1_linear_1674_11855" x1="1204.5" y1="-15858.8" x2="446.233" y2="-15858.8" gradientUnits="userSpaceOnUse">
<stop stop-color="#5C6C8C" stop-opacity="0"/>
<stop offset="0.350885" stop-color="#5C6C8C"/>
</linearGradient>
<linearGradient id="paint2_linear_1674_11855" x1="866.104" y1="-5773.74" x2="571.038" y2="-5773.74" gradientUnits="userSpaceOnUse">
<stop stop-color="#5C6C8C" stop-opacity="0"/>
<stop offset="0.350885" stop-color="#5C6C8C"/>
</linearGradient>
</defs>
</svg>
