<svg width="57" height="56" viewBox="0 0 57 56" fill="none" xmlns="http://www.w3.org/2000/svg">
<path d="M3.1665 13.3468C3.1665 10.028 3.1665 8.36859 3.69935 7.05962C4.4098 5.31434 5.77252 3.92771 7.48772 3.20479C8.77412 2.6626 10.4049 2.6626 13.6665 2.6626H43.4165C46.6781 2.6626 48.3089 2.6626 49.5953 3.20479C51.3105 3.92771 52.6732 5.31434 53.3837 7.05962C53.9165 8.36859 53.9165 10.028 53.9165 13.3468V42.7284C53.9165 46.0472 53.9165 47.7066 53.3837 49.0156C52.6732 50.7609 51.3105 52.1475 49.5953 52.8704C48.3089 53.4126 46.6781 53.4126 43.4165 53.4126H13.6665C10.4049 53.4126 8.77412 53.4126 7.48772 52.8704C5.77252 52.1475 4.4098 50.7609 3.69935 49.0156C3.1665 47.7066 3.1665 46.0472 3.1665 42.7284V13.3468Z" fill="white"/>
<g clip-path="url(#clip0_2092_14459)">
<path d="M28.5383 28.0382L38.1528 33.5888L28.5383 50.2411C40.8008 50.2411 50.7414 40.3006 50.7414 28.0382C50.7414 23.9928 49.6541 20.2034 47.7637 16.9365H28.5381L28.5383 28.0382Z" fill="url(#paint0_linear_2092_14459)"/>
<path d="M28.5411 5.83594C20.3231 5.83594 13.1534 10.3039 9.31421 16.9402L18.9267 33.5899L28.5411 28.0392V16.9376H47.7668C43.9269 10.3029 36.7582 5.83594 28.5411 5.83594Z" fill="url(#paint1_linear_2092_14459)"/>
<path d="M6.33656 28.0397C6.33656 40.3021 16.2768 50.2427 28.5396 50.2427L38.1541 33.5904L28.5396 28.0397L18.9252 33.5904L9.31268 16.9407C7.42332 20.2066 6.33643 23.9946 6.33643 28.0394" fill="url(#paint2_linear_2092_14459)"/>
<path d="M39.6455 28.0382C39.6455 34.1694 34.6751 39.1398 28.5438 39.1398C22.4126 39.1398 17.4421 34.1694 17.4421 28.0382C17.4421 21.907 22.4126 16.9365 28.5438 16.9365C34.6751 16.9365 39.6455 21.907 39.6455 28.0382Z" fill="white"/>
<path d="M37.5625 28.0384C37.5625 33.02 33.524 37.0585 28.5424 37.0585C23.5607 37.0585 19.5222 33.02 19.5222 28.0384C19.5222 23.0568 23.5607 19.0183 28.5424 19.0183C33.524 19.0183 37.5625 23.0568 37.5625 28.0384Z" fill="url(#paint3_linear_2092_14459)"/>
</g>
<defs>
<linearGradient id="paint0_linear_2092_14459" x1="39.6872" y1="16.8907" x2="39.6397" y2="50.2411" gradientUnits="userSpaceOnUse">
<stop stop-color="#AFCCFB"/>
<stop offset="1" stop-color="#8BB5F8"/>
</linearGradient>
<linearGradient id="paint1_linear_2092_14459" x1="25.3212" y1="6.17422" x2="27.1563" y2="36.0114" gradientUnits="userSpaceOnUse">
<stop stop-color="#1972E7"/>
<stop offset="1" stop-color="#1969D5"/>
</linearGradient>
<linearGradient id="paint2_linear_2092_14459" x1="22.2452" y1="16.9407" x2="22.2452" y2="50.2427" gradientUnits="userSpaceOnUse">
<stop stop-color="#659CF6"/>
<stop offset="1" stop-color="#4285F4"/>
</linearGradient>
<linearGradient id="paint3_linear_2092_14459" x1="28.4504" y1="19.0526" x2="28.5424" y2="37.0585" gradientUnits="userSpaceOnUse">
<stop stop-color="#3680F0"/>
<stop offset="1" stop-color="#2678EC"/>
</linearGradient>
<clipPath id="clip0_2092_14459">
<rect width="44.4063" height="44.4063" fill="white" transform="translate(6.33594 5.83594)"/>
</clipPath>
</defs>
</svg>
