<svg width="57" height="56" viewBox="0 0 57 56" fill="none" xmlns="http://www.w3.org/2000/svg">
<g clip-path="url(#clip0_2092_14512)">
<path d="M3.44165 13.3092C3.44165 9.9904 3.44165 8.33099 3.97449 7.02203C4.68495 5.27674 6.04767 3.89011 7.76287 3.16719C9.04926 2.625 10.6801 2.625 13.9417 2.625H43.6917C46.9532 2.625 48.584 2.625 49.8704 3.16719C51.5856 3.89011 52.9483 5.27674 53.6588 7.02203C54.1917 8.33099 54.1917 9.9904 54.1917 13.3092V42.6908C54.1917 46.0096 54.1917 47.669 53.6588 48.978C52.9483 50.7233 51.5856 52.1099 49.8704 52.8328C48.584 53.375 46.9532 53.375 43.6917 53.375H13.9417C10.6801 53.375 9.04926 53.375 7.76287 52.8328C6.04767 52.1099 4.68495 50.7233 3.97449 48.978C3.44165 47.669 3.44165 46.0096 3.44165 42.6908V13.3092Z" fill="white"/>
<g filter="url(#filter0_d_2092_14512)">
<path d="M21.4703 16.1626L22.696 23.1083L23.7855 43.2192L16.5674 26.6947L21.4703 16.1626Z" fill="#34258A"/>
<path d="M21.4697 16.1619L22.6954 23.1077L32.7736 15.254L33.1367 9.71558L21.4697 16.1619Z" fill="#4A3B9E"/>
<path d="M40.0787 19.5212L36.0837 43.3092L34.3133 46.941L22.6917 23.1076L32.7698 15.2539L40.0787 19.5212Z" fill="#6C5AC9"/>
<path d="M23.7812 43.2168L22.6917 23.106L34.3133 46.9394L23.7812 43.2168Z" fill="#4A3B9E"/>
<path d="M40.0826 19.5213L33.1369 9.71558L32.7737 15.254L40.0826 19.5213Z" fill="#AFA1F2"/>
</g>
</g>
<defs>
<filter id="filter0_d_2092_14512" x="12.5094" y="7.1143" width="31.6311" height="45.3413" filterUnits="userSpaceOnUse" color-interpolation-filters="sRGB">
<feFlood flood-opacity="0" result="BackgroundImageFix"/>
<feColorMatrix in="SourceAlpha" type="matrix" values="0 0 0 0 0 0 0 0 0 0 0 0 0 0 0 0 0 0 127 0" result="hardAlpha"/>
<feOffset dy="1.45672"/>
<feGaussianBlur stdDeviation="2.029"/>
<feComposite in2="hardAlpha" operator="out"/>
<feColorMatrix type="matrix" values="0 0 0 0 0.0719696 0 0 0 0 0 0 0 0 0 0.475 0 0 0 0.13 0"/>
<feBlend mode="normal" in2="BackgroundImageFix" result="effect1_dropShadow_2092_14512"/>
<feBlend mode="normal" in="SourceGraphic" in2="effect1_dropShadow_2092_14512" result="shape"/>
</filter>
<clipPath id="clip0_2092_14512">
<rect width="56" height="56" fill="white" transform="translate(0.814941)"/>
</clipPath>
</defs>
</svg>
