<svg width="57" height="56" viewBox="0 0 57 56" fill="none" xmlns="http://www.w3.org/2000/svg">
<path d="M3.44092 13.3092C3.44092 9.9904 3.44092 8.33099 3.97376 7.02203C4.68422 5.27674 6.04694 3.89011 7.76213 3.16719C9.04853 2.625 10.6793 2.625 13.9409 2.625H43.6909C46.9525 2.625 48.5833 2.625 49.8697 3.16719C51.5849 3.89011 52.9476 5.27674 53.6581 7.02203C54.1909 8.33099 54.1909 9.9904 54.1909 13.3092V42.6908C54.1909 46.0096 54.1909 47.669 53.6581 48.978C52.9476 50.7233 51.5849 52.1099 49.8697 52.8328C48.5833 53.375 46.9525 53.375 43.6909 53.375H13.9409C10.6793 53.375 9.04853 53.375 7.76213 52.8328C6.04694 52.1099 4.68422 50.7233 3.97376 48.978C3.44092 47.669 3.44092 46.0096 3.44092 42.6908V13.3092Z" fill="white"/>
<path d="M50.9072 28C50.9072 40.2013 41.0147 50.0938 28.8135 50.0938C16.6122 50.0938 6.71973 40.2013 6.71973 28C6.71973 15.7987 16.6122 5.90625 28.8135 5.90625C41.0147 5.90625 50.9072 15.7987 50.9072 28Z" fill="url(#paint0_linear_2092_14521)"/>
<path d="M17.0141 27.9271C24.4866 24.6418 34.156 20.6363 35.4912 20.0818C38.9923 18.6309 40.0667 18.9087 39.5311 22.1225C39.1462 24.4323 38.0366 32.0789 37.1514 36.8386C36.6265 39.6613 35.4485 39.9958 33.5969 38.7746C32.7064 38.1869 28.2111 35.2157 27.2351 34.5181C26.3446 33.8824 25.1163 33.1174 26.6568 31.6109C27.2052 31.0746 30.7982 27.645 33.598 24.9762C33.9646 24.6257 33.5039 24.0499 33.0806 24.3308C29.3069 26.832 24.0751 30.3032 23.4091 30.7551C22.4031 31.4379 21.4367 31.7509 19.7027 31.253C18.3921 30.8769 17.1125 30.4282 16.6143 30.2573C14.6954 29.5991 15.1508 28.7466 17.0141 27.9271Z" fill="white"/>
<defs>
<linearGradient id="paint0_linear_2092_14521" x1="13.191" y1="12.3775" x2="44.436" y2="43.6225" gradientUnits="userSpaceOnUse">
<stop stop-color="#62B6EF"/>
<stop offset="1" stop-color="#4293CF"/>
</linearGradient>
</defs>
</svg>
