<svg width="57" height="56" viewBox="0 0 57 56" fill="none" xmlns="http://www.w3.org/2000/svg">
<path d="M3.44165 13.3092C3.44165 9.9904 3.44165 8.33099 3.97449 7.02203C4.68495 5.27674 6.04767 3.89011 7.76287 3.16719C9.04926 2.625 10.6801 2.625 13.9417 2.625H43.6917C46.9532 2.625 48.584 2.625 49.8704 3.16719C51.5856 3.89011 52.9483 5.27674 53.6588 7.02203C54.1917 8.33099 54.1917 9.9904 54.1917 13.3092V42.6908C54.1917 46.0096 54.1917 47.669 53.6588 48.978C52.9483 50.7233 51.5856 52.1099 49.8704 52.8328C48.584 53.375 46.9532 53.375 43.6917 53.375H13.9417C10.6801 53.375 9.04926 53.375 7.76287 52.8328C6.04767 52.1099 4.68495 50.7233 3.97449 48.978C3.44165 47.669 3.44165 46.0096 3.44165 42.6908V13.3092Z" fill="#0082C9"/>
<path fill-rule="evenodd" clip-rule="evenodd" d="M28.8689 23.3618C26.337 23.3618 24.2845 25.4143 24.2845 27.9462C24.2845 30.4781 26.337 32.5306 28.8689 32.5306C31.4008 32.5306 33.4533 30.4781 33.4533 27.9462C33.4533 25.4143 31.4008 23.3618 28.8689 23.3618ZM21.3606 25.9111C22.2551 22.6029 25.2778 20.1689 28.8689 20.1689C32.4072 20.1689 35.3937 22.5319 36.3364 25.7658C37.1473 24.116 38.8289 22.9718 40.7929 22.9718C43.5606 22.9718 45.7673 25.2439 45.7673 28.0009C45.7673 30.7579 43.5606 33.03 40.7929 33.03C38.8125 33.03 37.1192 31.8665 36.3162 30.1945C35.3518 33.3936 32.3824 35.7234 28.8689 35.7234C25.3023 35.7234 22.2965 33.3227 21.3793 30.049C20.6064 31.7986 18.8729 33.03 16.8355 33.03C14.0678 33.03 11.8611 30.7579 11.8611 28.0009C11.8611 25.2439 14.0678 22.9718 16.8355 22.9718C18.8567 22.9718 20.5788 24.1836 21.3606 25.9111ZM40.7929 25.8099C39.6335 25.8099 38.6567 26.7703 38.6567 28.0009C38.6567 29.2314 39.6335 30.1919 40.7929 30.1919C41.9524 30.1919 42.9292 29.2314 42.9292 28.0009C42.9292 26.7703 41.9524 25.8099 40.7929 25.8099ZM14.6992 28.0009C14.6992 26.7703 15.676 25.8099 16.8355 25.8099C17.995 25.8099 18.9717 26.7703 18.9717 28.0009C18.9717 29.2314 17.995 30.1919 16.8355 30.1919C15.676 30.1919 14.6992 29.2314 14.6992 28.0009Z" fill="white"/>
</svg>
