<svg width="205" height="58" viewBox="0 0 205 58" fill="none" xmlns="http://www.w3.org/2000/svg">
<g clip-path="url(#clip0_1674_12293)">
<path d="M14.866 38.3019L29.6012 12.7773H0.128906L14.866 38.3019Z" fill="white"/>
<path d="M36.9758 2.16811L42.4706 11.6847H31.481L36.9758 2.16811ZM36.9758 0.00195312L29.6055 12.7678H44.3462L36.9758 0.00195312Z" fill="white"/>
<path d="M164.825 25.6797H160.969C159.343 25.6797 157.875 26.3548 156.83 27.4397V25.6797H154.664V41.8753H156.83V35.4238C157.877 36.5087 159.345 37.1838 160.969 37.1838H164.825C168.002 37.1838 170.578 34.6079 170.578 31.4308C170.578 28.2538 168.002 25.6797 164.825 25.6797ZM164.659 35.1584H160.587C158.532 35.1584 156.861 33.4869 156.861 31.4326C156.861 29.3784 158.532 27.7068 160.587 27.7068H164.659C166.713 27.7068 168.385 29.3784 168.385 31.4326C168.385 33.4869 166.713 35.1584 164.659 35.1584Z" fill="white"/>
<path d="M152.283 21.8848H150.117V37.1868H152.283V21.8848Z" fill="white"/>
<path d="M117.904 25.6758V27.4358C116.857 26.3509 115.39 25.6758 113.765 25.6758H109.909C106.732 25.6758 104.156 28.2517 104.156 31.4287C104.156 34.6058 106.732 37.1817 109.909 37.1817H113.765C115.391 37.1817 116.859 36.5066 117.904 35.4217V37.1799H120.07V25.6776L117.904 25.6758ZM114.148 35.1545H110.075C108.021 35.1545 106.349 33.483 106.349 31.4287C106.349 29.3745 108.021 27.7029 110.075 27.7029H114.148C116.202 27.7029 117.873 29.3745 117.873 31.4287C117.873 33.483 116.202 35.1545 114.148 35.1545Z" fill="white"/>
<path d="M203.209 25.6797V27.4397C202.162 26.3548 200.694 25.6797 199.07 25.6797H195.214C192.037 25.6797 189.461 28.2556 189.461 31.4326C189.461 34.6097 192.037 37.1856 195.214 37.1856H199.07C200.696 37.1856 202.164 36.5105 203.209 35.4256V37.1784H205.375V25.6797H203.209ZM199.451 35.1584H195.378C193.324 35.1584 191.652 33.4869 191.652 31.4326C191.652 29.3784 193.324 27.7068 195.378 27.7068H199.451C201.505 27.7068 203.176 29.3784 203.176 31.4326C203.176 33.4869 201.505 35.1584 199.451 35.1584Z" fill="white"/>
<path d="M102.105 25.6758H99.9393V27.4358C98.8923 26.3509 97.4247 25.6758 95.8001 25.6758H91.9444C88.7673 25.6758 86.1914 28.2517 86.1914 31.4287C86.1914 34.6058 88.7673 37.1817 91.9444 37.1817H95.8001C97.4265 37.1817 98.8941 36.5066 99.9393 35.4217V36.1654C99.9393 38.1925 98.2894 39.8424 96.2622 39.8424H92.0689C91.0725 39.8424 90.1482 39.4399 89.4713 38.763H86.8358C87.8196 40.745 89.8342 42.0086 92.0689 42.0086H96.2622C99.4844 42.0086 102.105 39.3875 102.105 36.1654V25.6758ZM96.181 35.1545H92.1086C90.0544 35.1545 88.3828 33.483 88.3828 31.4287C88.3828 29.3745 90.0544 27.7029 92.1086 27.7029H96.181C98.2352 27.7029 99.9068 29.3745 99.9068 31.4287C99.9068 33.483 98.2352 35.1545 96.181 35.1545Z" fill="white"/>
<path d="M84.0872 31.4516C84.0872 28.2745 81.5113 25.6986 78.3343 25.6986L74.3233 25.6914C71.1462 25.6914 68.5703 28.2673 68.5703 31.4444C68.5703 34.6214 71.1462 37.1973 74.3233 37.1973L78.3343 37.2045C80.3741 37.2045 82.1629 36.1431 83.1846 34.5438H80.3127C79.7459 34.9445 79.0635 35.1774 78.3343 35.1774L74.3233 35.1701C72.7799 35.1701 71.4549 34.1232 70.9675 32.67H84.0872C84.0872 32.6718 84.0872 31.457 84.0872 31.4516ZM70.8231 30.7981C71.1246 29.0507 72.6102 27.7186 74.3233 27.7186H75.4208V27.7258H78.3343C80.0455 27.7258 81.5311 29.0544 81.8344 30.7981H70.8231Z" fill="white"/>
<path d="M67.874 21.8691L60.0198 35.5015L52.1639 21.8691H49.6133L58.4349 37.182H58.4566H61.5813H61.6029L70.4264 21.8691H67.874Z" fill="white"/>
<path d="M146.298 37.1839H148.85L140.027 21.8691H140.005H136.88H136.859L128.035 37.1839H130.588L133.091 32.8371H143.792L146.298 37.1839ZM134.268 30.7955L138.444 23.5479L142.619 30.7955H134.268Z" fill="white"/>
<path d="M181.707 25.681H178.939C177.297 25.681 175.816 26.3705 174.768 27.4752V21.8848H172.602V37.1868H174.768V31.2895C174.845 29.302 176.481 27.7081 178.486 27.7081H181.47C183.524 27.7081 185.196 29.3797 185.196 31.4339V37.1868H187.46V31.4339C187.46 28.2569 184.884 25.681 181.707 25.681Z" fill="white"/>
</g>
<defs>
<clipPath id="clip0_1674_12293">
<rect width="205" height="58" fill="white"/>
</clipPath>
</defs>
</svg>
