<svg width="14" height="18" viewBox="0 0 14 18" fill="none" xmlns="http://www.w3.org/2000/svg">
<path d="M4.09199 12.025H2.07298C1.80524 12.025 1.54847 11.9188 1.35915 11.7297C1.16983 11.5406 1.06348 11.2841 1.06348 11.0167V6.98331C1.06348 6.71589 1.16983 6.45941 1.35915 6.27031C1.54847 6.08121 1.80524 5.97497 2.07298 5.97497H4.09199L11.4109 1.43743C11.4991 1.26624 11.6458 1.13223 11.8243 1.0596C12.0028 0.986965 12.2015 0.980509 12.3843 1.0414C12.5672 1.10228 12.7222 1.2265 12.8214 1.39159C12.9206 1.55669 12.9574 1.75177 12.9252 1.9416V16.0584C12.9574 16.2482 12.9206 16.4433 12.8214 16.6084C12.7222 16.7735 12.5672 16.8977 12.3843 16.9586C12.2015 17.0195 12.0028 17.013 11.8243 16.9404C11.6458 16.8678 11.4991 16.7338 11.4109 16.5626L4.09199 12.025Z" stroke="white" stroke-linecap="round" stroke-linejoin="round"/>
</svg>
