<svg width="18" height="18" viewBox="0 0 18 18" fill="none" xmlns="http://www.w3.org/2000/svg">
<path d="M4.59199 12.025H2.57298C2.30524 12.025 2.04847 11.9188 1.85915 11.7297C1.66983 11.5406 1.56348 11.2841 1.56348 11.0167V6.98331C1.56348 6.71589 1.66983 6.45941 1.85915 6.27031C2.04847 6.08121 2.30524 5.97497 2.57298 5.97497H4.59199L11.9109 1.43743C11.9991 1.26624 12.1458 1.13223 12.3243 1.0596C12.5028 0.986964 12.7015 0.980508 12.8843 1.0414C13.0672 1.10228 13.2222 1.2265 13.3214 1.39159C13.4206 1.55669 13.4574 1.75177 13.4252 1.9416V16.0584C13.4574 16.2482 13.4206 16.4433 13.3214 16.6084C13.2222 16.7735 13.0672 16.8977 12.8843 16.9586C12.7015 17.0195 12.5028 17.013 12.3243 16.9404C12.1458 16.8678 11.9991 16.7338 11.9109 16.5626L4.59199 12.025Z" stroke="white" stroke-linecap="round" stroke-linejoin="round"/>
<path d="M2.5 16L16.5 2" stroke="white" stroke-linecap="round"/>
</svg>
